<svg width="252" height="133" viewBox="0 0 252 133" fill="none" xmlns="http://www.w3.org/2000/svg">
<path fill-rule="evenodd" clip-rule="evenodd" d="M139.195 126.28C208.16 110.667 257.989 71.1622 250.491 38.043C242.993 4.92381 181.008 -9.2679 112.043 6.34495C43.0778 21.9578 -6.75126 61.4629 0.746523 94.5822C8.24431 127.701 70.2297 141.893 139.195 126.28ZM133.1 104.794C193.577 91.1028 238.495 61.8594 233.428 39.477C228.36 17.0946 175.227 10.049 114.751 23.7401C54.2743 37.4312 9.35621 66.6746 14.4233 89.0569C19.4904 111.439 72.6239 118.485 133.1 104.794Z" fill="url(#paint0_linear_0_1)"/>
<circle cx="126.077" cy="67" r="35" fill="url(#paint1_linear_0_1)"/>
<path d="M118.768 103L118.696 49.36H110.608V48.04H118.672V38.032C118.672 34.736 119.448 32.232 121 30.52C122.552 28.792 125.44 27.928 129.664 27.928C130.912 27.928 132.08 27.968 133.168 28.048C134.272 28.128 135.32 28.248 136.312 28.408V29.584C135.432 29.44 134.448 29.336 133.36 29.272C132.288 29.208 131.056 29.176 129.664 29.176C125.936 29.176 123.424 29.952 122.128 31.504C120.848 33.04 120.208 35.216 120.208 38.032V48.04H134.56V49.36H120.232L120.28 103H118.768ZM115.72 103V52H110.608V50.68H117.256V103H115.72ZM121.768 103V50.68H134.56V52H123.328V103H121.768ZM110.608 46.72V45.4H115.696L115.648 38.032C115.616 33.68 116.656 30.504 118.768 28.504C120.88 26.504 124.512 25.504 129.664 25.504C130.96 25.504 132.152 25.552 133.24 25.648C134.344 25.744 135.368 25.904 136.312 26.128V27.28C135.272 27.088 134.192 26.952 133.072 26.872C131.968 26.776 130.832 26.728 129.664 26.728C124.88 26.728 121.6 27.68 119.824 29.584C118.048 31.472 117.168 34.288 117.184 38.032L117.232 46.72H110.608ZM121.768 46.72L121.72 38.032C121.704 35.36 122.288 33.416 123.472 32.2C124.672 30.984 126.736 30.376 129.664 30.376C130.736 30.376 131.792 30.4 132.832 30.448C133.888 30.496 135.048 30.6 136.312 30.76V31.96C135.016 31.816 133.816 31.72 132.712 31.672C131.608 31.624 130.592 31.6 129.664 31.6C127.216 31.6 125.528 32.136 124.6 33.208C123.688 34.264 123.232 35.872 123.232 38.032L123.304 45.4H134.56V46.72H121.768Z" fill="#ECE6FF"/>
<defs>
<linearGradient id="paint0_linear_0_1" x1="83.5" y1="20.5" x2="193" y2="146" gradientUnits="userSpaceOnUse">
<stop stop-color="#ECE5FF"/>
<stop offset="1" stop-color="#33225F"/>
</linearGradient>
<linearGradient id="paint1_linear_0_1" x1="116.385" y1="57.8462" x2="151.924" y2="91.7692" gradientUnits="userSpaceOnUse">
<stop stop-color="#6340FF"/>
<stop offset="0.860472" stop-color="#070121"/>
</linearGradient>
</defs>
</svg>
