<?xml version="1.0" standalone="no"?>
<!DOCTYPE svg PUBLIC "-//W3C//DTD SVG 20010904//EN"
 "http://www.w3.org/TR/2001/REC-SVG-20010904/DTD/svg10.dtd">
<svg version="1.0" xmlns="http://www.w3.org/2000/svg"
 width="260.000000pt" height="260.000000pt" viewBox="0 0 260.000000 260.000000"
 preserveAspectRatio="xMidYMid meet">
<metadata>
Created by potrace 1.14, written by Peter Selinger 2001-2017
</metadata>
<g transform="translate(0.000000,260.000000) scale(0.100000,-0.100000)"
fill="#000000" stroke="none">
<path d="M0 1300 l0 -1300 1300 0 1300 0 0 1300 0 1300 -1300 0 -1300 0 0
-1300z m1897 910 c45 -20 83 -69 83 -108 0 -85 -95 -124 -143 -60 -20 27 -20
28 -2 67 14 33 15 43 5 56 -29 35 -118 8 -181 -55 -59 -59 -100 -138 -155
-302 l-43 -128 75 0 c41 0 74 -4 74 -9 0 -5 -3 -23 -6 -40 l-6 -31 -77 0 -76
0 -69 -273 c-115 -458 -198 -673 -316 -829 -129 -169 -324 -230 -415 -129 -31
35 -27 97 8 127 34 29 80 31 107 4 25 -25 25 -50 0 -82 -14 -19 -16 -28 -8
-36 18 -18 48 -14 103 12 81 38 126 99 169 226 21 65 256 956 256 974 0 3 -38
6 -85 6 -83 0 -85 1 -85 24 0 43 10 56 44 56 55 0 110 21 141 54 16 18 56 82
88 142 69 132 128 209 201 264 112 85 226 110 313 70z"/>
</g>
</svg>
