<?xml version="1.0" encoding="utf-8"?>
<!-- Generator: Circuit Diagram, cdlibrary.dll 4.0.0.0 -->
<!DOCTYPE svg PUBLIC "-//W3C//DTD SVG 1.1//EN" "http://www.w3.org/Graphics/SVG/1.1/DTD/svg11.dtd">
<svg version="1.1" width="260" height="100" xmlns="http://www.w3.org/2000/svg">
	<line x1="200" y1="60" x2="240" y2="60" style="stroke:rgb(0, 0, 0);stroke-linecap:square;stroke-width:2" />
	<line x1="150" y1="60" x2="155" y2="60" style="stroke:rgb(0, 0, 0);stroke-linecap:square;stroke-width:2" />
	<line x1="195" y1="60" x2="200" y2="60" style="stroke:rgb(0, 0, 0);stroke-linecap:square;stroke-width:2" />
	<path d="M 155,60 L 157,60 L 160,53 L 166,67 L 172,53 L 178,67 L 184,53 L 190,67 L 193,60 L 195,60" style="fill-opacity:0;fill:rgb(0, 0, 0);stroke:rgb(0, 0, 0);stroke-linecap:square;stroke-width:2" />
	<text x="175" y="46" style="font-family:Arial;font-size:11px;text-anchor:middle" dominant-baseline="baseline" transform="rotate(0, 175, 46)">5 kΩ</text>
	<line x1="110" y1="60" x2="150" y2="60" style="stroke:rgb(0, 0, 0);stroke-linecap:square;stroke-width:2" />
	<line x1="60" y1="60" x2="65" y2="60" style="stroke:rgb(0, 0, 0);stroke-linecap:square;stroke-width:2" />
	<line x1="105" y1="60" x2="110" y2="60" style="stroke:rgb(0, 0, 0);stroke-linecap:square;stroke-width:2" />
	<path d="M 65,60 L 67,60 L 70,53 L 76,67 L 82,53 L 88,67 L 94,53 L 100,67 L 103,60 L 105,60" style="fill-opacity:0;fill:rgb(0, 0, 0);stroke:rgb(0, 0, 0);stroke-linecap:square;stroke-width:2" />
	<text x="85" y="46" style="font-family:Arial;font-size:11px;text-anchor:middle" dominant-baseline="baseline" transform="rotate(0, 85, 46)">5 kΩ</text>
	<line x1="20" y1="60" x2="60" y2="60" style="stroke:rgb(0, 0, 0);stroke-linecap:square;stroke-width:2" />
</svg>